<?xml version="1.0" encoding="UTF-8"?>
<svg id="objects" xmlns="http://www.w3.org/2000/svg" viewBox="0 0 1755.09 2014">
  <defs>
    <style>
      .cls-1 {
        fill: #ccc;
      }

      .cls-1, .cls-2, .cls-3, .cls-4, .cls-5, .cls-6, .cls-7 {
        stroke-width: 0px;
      }

      .cls-2 {
        fill: #e03841;
      }

      .cls-3 {
        fill: #31b45f;
      }

      .cls-4 {
        fill: #f2e930;
      }

      .cls-5 {
        fill: #1f3d73;
      }

      .cls-6 {
        fill: #afafaf;
      }

      .cls-7 {
        fill: #fff;
      }
    </style>
  </defs>
  <g>
    <polygon class="cls-1" points="894.84 1490.16 896.39 1491.1 632.41 1629.51 134.25 1342.78 138.18 1323.07 177.53 1126.37 1577.56 1126.37 894.84 1490.16"/>
    <polygon class="cls-5" points="1755.09 2014 894.84 1490.16 1577.56 1126.37 1755.09 2014"/>
    <polygon class="cls-3" points="1755.09 2014 0 2014 134.25 1342.78 632.41 1629.51 896.39 1491.1 1755.09 2014"/>
    <polygon class="cls-4" points="521.73 1633.96 119.63 1415.8 147.14 1278.28 662.2 1557.76 614.1 1609.17 521.73 1633.96"/>
    <polygon class="cls-4" points="1593.25 1204.79 102.08 2014 0 2014 21.77 1905.16 1457.45 1126.37 1577.56 1126.37 1593.25 1204.79"/>
    <polygon class="cls-4" points="1755.09 2014 1653 2014 855.17 1581.12 981.3 1497.12 1733.32 1905.16 1742.96 1953.38 1755.09 2014"/>
  </g>
  <ellipse class="cls-6" cx="678.83" cy="1247.35" rx="188.18" ry="64.8"/>
  <path class="cls-2" d="M1198.04,609.24c-51.09,465.9-518.68,648.25-518.68,648.25,0,0-523.19-229.6-523.19-729.65C156.17,236.6,390.21.3,678.82,0c318.54-.33,554.25,289.82,519.22,609.24Z"/>
  <circle class="cls-7" cx="678.83" cy="522.66" r="288.15"/>
</svg>